<svg xmlns="http://www.w3.org/2000/svg" viewBox="0 0 4000 2666.7"><path d="M4000 2667H0V0h4000v2667" fill="#fff"/><path d="M1866 2416l-18-200 58-59 130 57a88 88 0 00116-46l9-22c20-44-1-96-45-115l-61-27 654-667-40-40-669 683-179-77-2-19 65 2 30-39s-46-10-100-25l-48-545 25 31-2 1 8 11-6 5 2 2 3-2 37 47 14-2-41-53 4-3-2-3-7 6-8-11-2 1-25-32-9-101c10-6 20-12 28-20v-1h1v-1h1v-1h1v-1h1v-1h1v-1-1h1v-1h1v-1h1v-1l1-1 1-1c28-37 33-89 18-146 93-93 224-186 435-233 90-21 180-30 265-30 378 0 676 188 635 483-74 540 849 262 375 1200H1866m-24-274l-1-13 9 4-8 9M481 1801c23-120 76-244 180-357a720 720 0 01375-237l-157 168a188 188 0 00-27 2h-1a94 94 0 00-32 13 88 88 0 00-45 82l2 14-295 315" fill="#d8f0f9"/><path d="M1668 2400l1041-1063-40-40-1041 1063 40 40" fill="#afcdfb"/><path d="M1742 2411h-459c-53 0-99-21-124-56a86 86 0 010-106l141-185 98-2-165 221c-9 12-9 26 0 39 10 13 29 21 50 21h379c44 0 80 31 80 68" fill="#6488d3"/><path d="M1611 2263h-286c-9 0-16 7-16 16v48c0 9 7 16 16 16h286c9 0 17-7 17-16v-48c0-9-8-16-17-16" fill="#7ea6ed"/><path d="M1383 1928l-376-470-31-39c-31-33-76-49-121-43-55 11-89 55-79 111l365 488a103 103 0 00121 82l39-8c56-11 93-65 82-121" fill="#afcdfb"/><path d="M1914 1847l-30 39s-190-2-249-29c-8-4-42-3-83-3-60 0-134 1-163-10-11-5-20-10-26-18-38-43-17-92-17-92s76-8 149-2c52 4 131 18 163 37 51 30 256 78 256 78" fill="#ffb07b"/><path d="M1957 1781c-3 0-6 2-8 5-4 7-11 21-26 31-9 6-36 30-36 30l5 20c3 9-13 17-13 17l3 5c2 2 5 4 9 5 6 1 16 8 22 13l6 5s4 2 10-11l6-17 2-17c2-9 7-12 8-12l24-72c-2-2-8-2-12-2" fill="#415da5"/><path d="M1139 1395a497 497 0 0040 79l-77 45s1-44-14-70l-3-4c-3-5-7-8-11-11l7-10 29-15 29-14" fill="#ffb07b"/><path d="M1139 1395s14 22 27 47c-30 15-65 10-78 7l-3-4 11-18 14-18 29-14" fill="#ea8e50"/><path d="M1171 1413s-67 68-109 25c-41-42-78-62-36-107 41-45 65-37 82-26s79 89 63 108" fill="#ffb07b"/><path d="M1496 1737c1 5 0 41-23 57-15 11-52 36-88 49-11-4-19-10-25-18-36-45-12-93-12-93s76-4 148 5" fill="#aa3e39"/><path d="M1247 1714s85 23 146-2c0 0 53 15 115 21 0 0-22 100-36 117-5 6-82 6-132 7-30 0-59-13-79-35-8-10-17-21-25-34a50 50 0 0111-74" fill="#b84c42"/><path d="M1359 1648l-24-34-23-30c-34-44-78-81-127-109l-8-5s-57 9-79 15c0 0-10 59 0 90 7 17 47 109 128 203 0 0 69 25 128-30 9-8 39-22 45-41 2-6-35-54-40-59" fill="#739cf3"/><path d="M994 1488l-75-91c-11-13-9-34 5-45l3-1c13-10 32-8 43 5l73 92a31 31 0 01-49 40" fill="#b84c42"/><path d="M970 1359s3-2 8-1c-7-11-5-28-5-28 0 9 10 19 10 19-4-35 80-67 88-70 7-3 5-16 5-16 16 1 36 20 38 41 2 20-5 77-14 71-20-13-23 18-4 26 14 6 4 33-8 46-9 11-16 4-23 1l-5-1c-26-3-55-24-72-54-6-12-9-25-9-31l-9-3" fill="#2c3a64"/><path d="M1148 1536s-36 55-3 131c0 0 44 68 81 111 0 0 67 33 144-38l-80-35-142-169" fill="#6488d3"/><path d="M1490 1728c-3-3-13-14-44-14-35-3-135-13-144-26-6-8-88-174-95-175-24-3-65 39-59 60 0 0 85 173 104 176 30 6 138 2 178-7l29 15c5 2 25 2 33-4 9-6 3-18-2-25" fill="#ffb07b"/><path d="M1253 1589c-14 26-41 48-77 55-8-9-28-71-28-71-6-21-8-92 57-66 40 16 43 68 48 82" fill="#739cf3"/><path d="M2036 2214l-358-156 79-183 359 156c44 19 65 71 45 115l-9 22a88 88 0 01-116 46" fill="#9fc1f4"/><path d="M1811 2029v-131l-54-23-79 183 73 32c33 0 60-27 60-61" fill="#7ea6ed"/><path d="M1712 1854h-425l-341-408c-27-35-44-51-65-64a42 42 0 00-33-4 96 96 0 00-53 153l346 444c4 18 12 35 24 48l1 2 4 6 4 6h1l1 2 3 3h1l1 2h1l2 2 1 1 2 1 1 1 1 1 2 1 1 1 2 1h1a73 73 0 009 4 50 50 0 006 2l1 1h4a54 54 0 006 1h1a91 91 0 007 1h483a71 71 0 0051-21c13-13 21-31 21-51v-64c0-40-32-72-72-72" fill="#9fc1f4"/><path d="M1782 1967h-639c-4 0-25 0-25-8 0-4 4-8 8-8h656a8 8 0 010 16" fill="#6488d3"/><path d="M1808 1311l-7 6-8-11-2 1-34-44-1 1 35 44-2 1 8 11-6 5 2 2 3-2 37 47 14-2-41-53 4-3-2-3M2673 1378l-780-780 40-40 780 780-40 40" fill="#afcdfb"/><path d="M1942 632l-205 205-40-40 205-205 40 40" fill="#afcdfb"/><path d="M1736 798c63 63 82 146 43 185-40 39-122 20-185-43s-83-146-43-185c39-39 122-20 185 43" fill="#6488d3"/><path d="M1709 824c112 112 146 259 76 329-69 70-217 36-328-76-112-112-146-259-76-329 69-69 217-35 328 76" fill="#9fc1f4"/><path d="M1801 959c20 67 14 129-25 168-70 70-217 36-329-76-41-42-72-88-91-134 17 54 51 110 101 160 111 112 259 146 328 76 44-44 47-118 16-194" fill="#739cf3"/><path d="M1661 873c87 87 114 201 59 256-54 54-169 28-256-59-87-88-113-202-59-257 54-54 169-28 256 60" fill="#c5ddf9"/><path d="M1575 951c24 23 31 54 16 69-14 14-45 7-69-16-23-24-30-54-16-69 15-15 46-8 69 16M1641 880c23 23 30 54 16 69-15 14-46 7-69-16-24-24-31-55-16-69 15-15 45-8 69 16M1473 848c23 24 30 54 16 69-15 15-46 7-69-16-24-23-31-54-16-69 14-14 45-7 69 16M1674 1050c24 23 31 54 16 69-14 14-45 7-69-16-23-24-30-54-16-69 15-15 46-8 69 16M1510 1016c18 18 24 42 13 53-12 11-35 6-53-12s-24-42-13-53c12-12 35-6 53 12" fill="#fff"/><path d="M1866 2421l-1482-5c-189-322-44-465-44-465l141-150c-61 320 97 615 97 615h1288v5m-343-1173c-43 0-96-14-157-27-60-14-129-27-205-27-40 0-82 4-125 13l311-331a370 370 0 00105 196v1h1v1h1v1h1v1h1v1h1l11 11 1 1c55 52 119 85 176 96-35 36-68 60-109 62l-13 1" fill="#fff"/><path d="M578 2416s-158-295-97-615l295-315c2 16 8 31 19 45l328 421c-3 1-5 4-5 7 0 6 10 7 17 8l6 8a103 103 0 0025 50l4 6 4 6h1l1 2 3 3h1l1 2h1l2 2 1 1 2 1 1 1 1 1 2 1 1 1 2 1h1a73 73 0 009 4 50 50 0 006 2l1 1h4a54 54 0 006 1h1a91 91 0 007 1h169l-98 2-141 185a86 86 0 000 106c25 35 71 56 124 56h459c0-22-12-42-32-54l138-141 18 200H578m1067-73h-34c9 0 17-7 17-16v-48c0-9-8-16-17-16h-286c-9 0-16 7-16 16v48c0 9 7 16 16 16h-42c-21 0-40-8-50-21-9-13-9-27 0-39l165-221h288l15 6 140 61 1 13-197 201m176-440l-50-22 48 3 2 19m-223-49h-29 29m-118 0h-26l6-1 20 1m334-32c-60-16-129-37-156-53-30-18-99-31-150-36l-16-2-2-3c-3-3-13-14-44-14a1796 1796 0 01-47-7c2-6-35-54-40-59l-24-34-23-30c-34-44-78-81-127-109l-7-4a232 232 0 00-21-46l14-12c15-17-34-82-56-103l-1-6c-2-21-22-40-38-41 0 0 2 13-5 16-8 3-92 35-88 70 0 0-10-10-10-19 0 0-2 17 5 28a16 16 0 00-7 0l-1-2a31 31 0 00-43-5l-3 1c-9 7-13 18-12 28-11-3-22-5-33-5l157-168c43-9 85-13 125-13 76 0 145 13 205 27 61 13 114 27 157 27l13-1c41-2 74-26 109-62a238 238 0 0043 4c26 0 49-5 69-15l9 101-9-12-1 1 10 13 48 545m-717-251l-61-77a31 31 0 007-46l-7-8c8 4 16 6 24 7l5 1c4 2 8 5 13 5 2 0 4 0 6-2l5 1c5 10 8 21 10 32l-1 1s-9 54-1 86m-117-202l-8-10 7 3 1 7" fill="#e0f3fa"/><path d="M1710 2357c-13-9-30-14-48-14h-17l197-201 6 74-138 141" fill="#bfd7fc"/><path d="M1742 2411h-459c-53 0-99-21-124-56a86 86 0 010-106l141-185 98-2-165 221c-9 12-9 26 0 39 10 13 29 21 50 21h379c18 0 35 5 48 14 20 12 32 32 32 54" fill="#83a0dc"/><path d="M1611 2343h-286c-9 0-16-7-16-16v-48c0-9 7-16 16-16h286c9 0 17 7 17 16v48c0 9-8 16-17 16" fill="#98b8f1"/><path d="M1313 1854h-26l-341-408a224 224 0 00-71-67l4-4c11 0 22 2 33 5 1 6 3 12 7 17l75 91a31 31 0 0042 6l61 77 1 4a760 760 0 00138 213c8 13 17 24 25 34 14 16 32 27 52 32" fill="#bfd7fc"/><path d="M1819 1884l-48-3-4-2a72 72 0 00-55-25h-232l-20-1c6 0 11-1 12-3 13-16 35-113 36-117 51 5 120 18 150 36 27 16 96 37 156 53l5 62M1099 1484c-2-11-5-22-10-32a48 48 0 0016-1l13 1c15 0 32-2 48-10l-9-17a413 413 0 0121 46l-1-1s-56 8-78 14" fill="#ffc095"/><path d="M1118 1452l-13-1c20-3 39-16 52-26l9 17c-16 8-33 10-48 10" fill="#eea573"/><path d="M1095 1452a48 48 0 01-11-1l4-4c12-13 22-40 8-46-15-7-16-29-5-29l9 3h1c8 0 14-42 14-65 22 21 71 86 56 103l-14 12c-13 10-32 23-52 26l-10 1" fill="#ffc095"/><path d="M1454 1854h-141c-20-5-38-16-52-32a343 343 0 01-30-42c7 2 19 6 35 6 24 0 57-8 92-36 29-2 56-4 72-8l29 15 11 1c8 0 17-1 22-5 7-5 4-15 0-22l16 2c-1 4-23 101-36 117-1 2-6 3-12 3l-6 1" fill="#c67068"/><path d="M1217 1768a760 760 0 01-120-197c-8-32 1-86 1-86l1-1c22-6 78-14 78-14l1 1 7 4c49 28 93 65 127 109l23 30 24 34a265 265 0 0139 61c-41-5-90-12-96-21l-50-97 1-2c-5-14-8-66-48-82-10-4-18-6-25-6-23 0-32 19-34 38-7 12-29 62-1 128 0 0 37 58 72 101" fill="#8fb0f5"/><path d="M1019 1499c-9 0-18-4-25-11l-75-91a31 31 0 015-45l3-1a31 31 0 0143 5l1 2-1 1h2l8 10c1 7 4 15 8 24 12 21 30 38 48 47l7 8a31 31 0 01-24 51" fill="#c67068"/><path d="M1078 1453c-5 0-9-3-13-5l-5-1c-8-1-16-3-24-7-18-9-36-26-48-47a82 82 0 01-9-31 67 67 0 00-9-3l1-1a17 17 0 017 0c-7-11-5-28-5-28 0 9 10 19 10 19-4-35 80-67 88-70 7-3 5-16 5-16 16 1 36 20 38 41l1 6c0 23-6 65-14 65h-1l-9-3c-11 0-10 22 5 29 14 6 4 33-8 46l-4 4c-2 2-4 2-6 2" fill="#566183"/><path d="M1266 1786c-16 0-28-4-35-6l-5-2-9-10c-35-43-72-101-72-101-28-66-6-116 1-128-2 13 0 27 2 34 0 0 20 62 28 71l7-2c26 49 58 105 69 107a1063 1063 0 00106 1c-35 28-68 36-92 36" fill="#83a0dc"/><path d="M1470 1758l-11-1-29-15a1063 1063 0 01-179 7c-10-2-42-58-68-107 32-8 55-27 69-51l50 97c6 9 55 16 96 21l48 5c31 0 41 11 44 14l2 3c4 7 7 17 0 22-5 4-14 5-22 5" fill="#ffc095"/><path d="M1176 1644c-8-9-28-71-28-71-2-7-4-21-2-34 2-19 11-38 34-38 7 0 15 2 25 6 40 16 43 68 48 82l-1 2a111 111 0 01-76 53" fill="#8fb0f5"/><path d="M1841 2129l-140-61 50 22c33 0 60-27 60-61v-131l-44-19 4 2 50 22 20 226" fill="#b2cdf6"/><path d="M1751 2090l-50-22-15-6h26a71 71 0 0051-21c13-13 21-31 21-51v-23c4-1 6-4 6-8s-2-7-6-8v-25c0-18-6-35-17-47l44 19v131c0 34-27 61-60 61" fill="#98b8f1"/><path d="M1712 2062h-483a67 67 0 01-7-1h-1a81 81 0 01-6-1h-4l-1-1h-2l-1-1-3-1a108 108 0 01-9-4h-1l-2-1-1-1-2-1-1-1-1-1-2-1-1-1-2-2h-1l-1-2h-1l-3-3-1-2h-1l-4-6-4-6-1-2a103 103 0 01-24-48l-6-8h649v23a72 72 0 01-72 72m-589-110l-328-421a96 96 0 01-19-45l99-107 6 3c21 13 38 29 65 64l341 408h425c22 0 41 10 55 25 11 12 17 29 17 47v25h-658l-3 1" fill="#b2cdf6"/><path d="M1142 1967h-7c-7-1-17-2-17-8a8 8 0 018-8h658c4 1 6 4 6 8a8 8 0 01-8 8h-639-1" fill="#83a0dc"/><path d="M1766 1277l-10-13 1-1 9 12v2" fill="#bfd7fc"/><path d="M1664 1188l-19-3a374 374 0 0119 3m15-25c-19 0-40-3-60-8l26 2c30 0 56-9 75-28 17-16 26-38 28-62l7 77c-22 13-48 19-76 19m-210-74l-1-1 1 1m-15-14v-1 1m-1-1v-1 1m0-1h-1 1m-1 0v-1 1m0-1c-60-61-96-133-105-196l54-58c-45 51-26 149 44 231-41-42-71-87-89-132 16 52 49 107 96 155" fill="#b2cdf6"/><path d="M1688 1189l-24-1c-63-7-134-42-195-99l-1-1a455 455 0 01-12-11v-1h-1v-1h-1v-1h-1v-1h-1v-1c-47-48-80-103-96-155 18 45 48 90 89 132l19 21c48 48 105 77 155 85 20 5 41 8 60 8 28 0 54-6 76-19l2 30c-20 10-43 15-69 15" fill="#8fb0f5"/><path d="M1748 1067c3-34-6-73-26-113 36 67 26 112 26 113m-100-207a264 264 0 00-159-75c43 0 99 17 159 75m-243-47a90 90 0 000 0" fill="#b2cdf6"/><path d="M1645 1157l-26-2a292 292 0 01-174-106c-70-82-89-180-44-231l4-5 12-10c13-8 36-17 64-18 52 0 113 26 167 75 35 34 59 66 74 94 20 40 29 79 26 113-2 24-11 46-28 62-19 19-45 28-75 28m-19-131c-8 0-15 3-21 8-14 15-7 45 16 69 16 15 34 23 49 23 8 0 15-2 20-7 15-15 8-46-16-69a73 73 0 00-48-24m-153-28c-6 0-12 2-16 6-11 11-5 35 13 53 11 11 25 18 37 18 6 0 12-2 16-6 11-11 5-35-13-53a56 56 0 00-37-18m54-71c-8 0-15 3-21 8-14 15-7 45 16 69 16 15 34 23 49 23 8 0 15-2 20-7 15-15 8-46-16-69a73 73 0 00-48-24m65-71c-8 0-15 3-20 8-15 14-8 45 16 69 15 15 33 23 48 23 9 0 16-2 21-7 14-15 7-46-16-69a73 73 0 00-49-24m-168-31c-8 0-15 2-20 7-15 15-8 46 16 69 15 15 33 24 48 24 8 0 15-3 21-8 14-15 7-45-16-69a73 73 0 00-49-23" fill="#d1e4fa"/><path d="M1571 1027c-15 0-33-8-49-23-23-24-30-54-16-69 6-5 13-8 21-8 15 0 33 9 48 24 24 23 31 54 16 69-5 5-12 7-20 7M1636 956c-15 0-33-8-48-23-24-24-31-55-16-69 5-5 12-8 20-8 15 0 34 8 49 24 23 23 30 54 16 69-5 5-12 7-21 7M1468 925c-15 0-33-9-48-24-24-23-31-54-16-69 5-5 12-7 20-7 15 0 33 8 49 23 23 24 30 54 16 69-6 5-13 8-21 8M1670 1126c-15 0-33-8-49-23-23-24-30-54-16-69 6-5 13-8 21-8 15 0 33 9 48 24 24 23 31 54 16 69-5 5-12 7-20 7M1507 1075c-12 0-26-7-37-18-18-18-24-42-13-53 4-4 10-6 16-6 12 0 26 6 37 18 18 18 24 42 13 53-4 4-10 6-16 6" fill="#fff"/><path d="M1997 606a69 69 0 11-138 0 69 69 0 01138 0" fill="#6488d3"/><path d="M1956 606a28 28 0 11-57 0 28 28 0 0157 0" fill="#afcdfb"/><path d="M2735 1331a69 69 0 11-138 0 69 69 0 01138 0" fill="#6488d3"/><path d="M2695 1331a28 28 0 11-57 0 28 28 0 0157 0" fill="#afcdfb"/><path d="M2119 951s65 4 78 70c12 66-97 261-108 274-12 12-130 101-208 90 0 0-30 2-24-16 0 0 157-110 170-125 14-15 53-209 61-234 8-24 31-59 31-59" fill="#c5ddf9"/><path d="M2146 962l-45 105-87-5s46-81 46-89a331 331 0 00-3-66v-1l-1-6v-2h1l77-24h2a890 890 0 0010 88" fill="#ffb07b"/><path d="M2009 803s-28-124 143-126c39 0 67 109-8 176l-135-50" fill="#2b478b"/><path d="M2240 1526c-11 77-85 277-83 346 2 55 1 181-6 264-2 23-4 43-7 57l-19 89c-10 50-5 79-13 106-9 30-110 24-80 6 11-6 27-20 35-37 28-64-11-339-23-444l-3-31c-4-66-49-501-49-501 109-61 259 68 248 145" fill="#ffb07b"/><path d="M2240 1526c-11 77-85 277-83 346 2 55 1 181-6 264l-107-223-3-31c-4-66-50-502-50-502 109-60 260 69 249 146" fill="#ea8e50"/><path d="M2004 1395s94 430 104 495c11 64 96 369 77 445-10 45-30 58-30 58-4 8 70 25 76-7 8-40 9-96 20-191 19-165-19-258-28-327-9-68 31-286 9-361-39-130-126-184-228-112" fill="#ffb07b"/><path d="M2268 1977l-61 6-19-78-7 79c-58 3-133 0-188-23l-12-566s129 10 226-27c0 0 101 281 61 609" fill="#fff"/><path d="M2267 2328c-4 26-5 74-5 83h-8l-1-61-2 2c-7 8-17 49-24 59h-86c-2-3-1-6 1-9 4-6 14-11 14-11s28 5 56-2c11-3 31-108 31-108s28 17 31 25c1 4-2 12-7 22" fill="#415da5"/><path d="M2146 2332a671 671 0 00-5 79h-8v-59c-8 9-17 49-24 59h-87c-5-10 15-20 15-20s28 5 56-2c12-3 32-107 32-107s27 16 30 24c2 4-3 16-9 26" fill="#415da5"/><path d="M2128 889c-9 15-29 39-69 47l-2-29v-1l-1-6v-2h1l71-9" fill="#ea8e50"/><path d="M2054 923s97-9 90-70c-6-60 2-102-61-99-62 3-72 28-74 49-3 20 19 121 45 120" fill="#ffb07b"/><path d="M2034 769s-37 16-26 60c0 0-37-64 23-81 61-16 3 21 3 21" fill="#2b478b"/><path d="M2037 754s-16 41 40 56c56 16 69 52 61 73 0 0 69-97 9-138-61-42-110 9-110 9" fill="#2b478b"/><path d="M2224 1426s-80 34-138 33c-57-2-67-24-67-24-10 10-38 0-38 0l-1-91-3-24a1459 1459 0 012-70c3-22-17-111-2-158 6-18 76-106 81-113-17 35-31 73-31 73 27-6 116-100 116-100l59 72 11 14-14 228c-2 36 25 160 25 160" fill="#fff"/><path d="M2178 1267c16-33 35-229 35-229l-11-14c-38 90-113 264-134 278-19 11-58 25-88 42v59s157-50 198-136" fill="#c5ddf9"/><path d="M2161 1024c0 3-42 190-45 195-3 4-132 91-132 91l177-286" fill="#c5ddf9"/><path d="M1885 1368s-61 1-66 8c-5 8 22 34 46 34 24 1 49-21 49-21l-29-21" fill="#ffb07b"/><path d="M2143 952s58 19 70 86c13 66-96 261-108 273-11 12-129 101-207 91 0 0-29-20-23-38 0 0 156-88 169-104 13-15 53-208 60-233 8-25 39-75 39-75" fill="#fff"/><path d="M1984 1501s14 300 66 348c52 47 107 22 131 135 0 0-137 21-188-23 0 0-21-276-9-460" fill="#c5ddf9"/><path d="M2017 859l15-11 82-5s0 35 18 48c0 0-32 35-83 34 0 0-25-14-32-66" fill="#fff"/><path d="M2132 891s-56 27-70 13c-15-15-27-51-27-51s11 58 25 67 52-8 72-29" fill="#c5ddf9"/><path d="M2938 1491h-11v61h11v-61" fill="#b64c41"/><path d="M2965 2061h-5v-4c17 1 29-4 39-13 32-34 24-126 15-215-8-82-16-167 8-207 35-60 31-121-12-180l-2-3-7-4c-10-1-23 12-23 13l-3-3c1-1 15-15 27-14 4 1 7 3 9 6l2 3c7 10 24 33 32 65 10 39 3 79-20 119-23 39-15 123-7 204 9 90 18 184-16 218-9 10-22 15-37 15" fill="#9fc1f4"/><path d="M2966 1738h-448c-11 0-19 8-19 19v579c0 11 8 19 19 19h448c11 0 19-8 19-19v-579c0-11-8-19-19-19" fill="#6488d3"/><path d="M2430 2380a35 35 0 1169 0 35 35 0 01-69 0" fill="#9fc1f4"/><path d="M2440 2380a24 24 0 1148 0 24 24 0 01-48 0" fill="#88ade5"/><path d="M2869 2380a35 35 0 1169 0 35 35 0 01-69 0" fill="#9fc1f4"/><path d="M2880 2380a24 24 0 1148 0 24 24 0 01-48 0" fill="#88ade5"/><path d="M2613 1690h-40a3 3 0 000-6h-28a3 3 0 000 6c-10 0-19 9-19 19v98c0 10 9 19 19 19h68c10 0 18-9 18-19v-98c0-10-8-19-18-19M2703 1668h-25c1 0 3-1 3-3v-1c0-2-2-3-3-3h-19c-1 0-3 1-3 3v1c0 2 2 3 3 3h3c-9 0-16 8-16 17v127c0 9 7 17 16 17h41c9 0 17-8 17-17v-127c0-9-8-17-17-17M2771 1739h-29l-5-45h37l-3 45" fill="#9fc1f4"/><path d="M2775 1692h-38l-1 1v1h39v-1-1" fill="#afcdfb"/><path d="M2771 1746h-29l-5-45h37l-3 45" fill="#9fc1f4"/><path d="M2775 1699h-39v1l1 1h38v-2" fill="#afcdfb"/><path d="M2771 1752h-29l-5-45h37l-3 45" fill="#9fc1f4"/><path d="M2775 1705h-38l-1 1v1h39v-1-1" fill="#afcdfb"/><path d="M2771 1761h-29l-5-45h37l-3 45" fill="#9fc1f4"/><path d="M2775 1714h-38l-1 1 1 1h38v-1-1" fill="#afcdfb"/><path d="M2771 1767h-29l-5-45h37l-3 45" fill="#9fc1f4"/><path d="M2775 1720h-38l-1 1v1h39v-1-1" fill="#afcdfb"/><path d="M2432 1523h-2c0-2-2-4-4-4h-4c-2 0-4 2-4 4h-2c-5 0-9 4-9 9v78c0 5 4 9 9 9h16c5 0 9-4 9-9v-78c0-5-4-9-9-9M2473 1523h-2c0-2-2-4-4-4h-4c-2 0-4 2-4 4h-2c-5 0-9 4-9 9v78c0 5 4 9 9 9h16c5 0 9-4 9-9v-78c0-5-4-9-9-9M2517 1523h-2c0-2-1-4-4-4h-3c-3 0-4 2-4 4h-2c-5 0-9 4-9 9v78c0 5 4 9 9 9h15c5 0 9-4 9-9v-78c0-5-4-9-9-9" fill="#b64c41"/><path d="M2608 1471h-24c1 0 2-1 2-3v-1c0-2-1-3-2-3h-19c-2 0-3 1-3 3v1c0 2 1 3 3 3h3c-9 0-17 7-17 17v127c0 9 8 17 17 17h40c10 0 17-8 17-17v-127c0-10-7-17-17-17" fill="#ee9849"/><path d="M2771 1542h-29l-5-45h37l-3 45" fill="#9fc1f4"/><path d="M2775 1495h-38l-1 1v1h39v-1-1" fill="#afcdfb"/><path d="M2771 1549h-29l-5-46h37l-3 46" fill="#9fc1f4"/><path d="M2775 1502h-39v1h39v-1" fill="#afcdfb"/><path d="M2771 1555h-29l-5-45h37l-3 45" fill="#9fc1f4"/><path d="M2775 1508h-38l-1 1v1h39v-1-1" fill="#afcdfb"/><path d="M2771 1564h-29l-5-45h37l-3 45" fill="#9fc1f4"/><path d="M2775 1517h-38l-1 1 1 1h38v-1-1" fill="#afcdfb"/><path d="M2771 1570h-29l-5-45h37l-3 45" fill="#9fc1f4"/><path d="M2775 1523h-38l-1 1v1h39v-1-1" fill="#afcdfb"/><path d="M2718 1542h-30l-5-45h38l-3 45" fill="#9fc1f4"/><path d="M2721 1495h-38v2h39v-1l-1-1" fill="#afcdfb"/><path d="M2718 1549h-30l-5-46h38l-3 46" fill="#9fc1f4"/><path d="M2721 1502h-38v1h39v-1h-1" fill="#afcdfb"/><path d="M2718 1555h-30l-5-45h38l-3 45" fill="#9fc1f4"/><path d="M2721 1508h-38v2h39v-1l-1-1" fill="#afcdfb"/><path d="M2718 1564h-30l-5-45h38l-3 45" fill="#9fc1f4"/><path d="M2721 1517h-38v2h38l1-1-1-1" fill="#afcdfb"/><path d="M2683 1525l5 45h30l3-45h-38" fill="#9fc1f4"/><path d="M2721 1523h-38v2h39v-1l-1-1" fill="#afcdfb"/><path d="M2826 1542h-29l-5-45h37l-3 45" fill="#9fc1f4"/><path d="M2830 1495h-38l-1 1v1h39v-1-1" fill="#afcdfb"/><path d="M2826 1549h-29l-5-46h37l-3 46" fill="#9fc1f4"/><path d="M2830 1502h-39v1h39v-1" fill="#afcdfb"/><path d="M2826 1555h-29l-5-45h37l-3 45" fill="#9fc1f4"/><path d="M2830 1508h-38l-1 1v1h39v-1-1" fill="#afcdfb"/><path d="M2826 1564h-29l-5-45h37l-3 45" fill="#9fc1f4"/><path d="M2830 1517h-38l-1 1 1 1h38v-1-1" fill="#afcdfb"/><path d="M2826 1570h-29l-5-45h37l-3 45" fill="#9fc1f4"/><path d="M2830 1523h-38l-1 1v1h39v-1-1" fill="#afcdfb"/><path d="M2819 1739h-29l-6-45h38l-3 45" fill="#9fc1f4"/><path d="M2822 1692h-38v2h39v-1l-1-1" fill="#afcdfb"/><path d="M2819 1746h-29l-6-45h38l-3 45" fill="#9fc1f4"/><path d="M2822 1699h-38v2h38l1-1v-1h-1" fill="#afcdfb"/><path d="M2819 1752h-29l-6-45h38l-3 45" fill="#9fc1f4"/><path d="M2822 1705h-38v2h39v-1l-1-1" fill="#afcdfb"/><path d="M2819 1761h-29l-6-45h38l-3 45" fill="#9fc1f4"/><path d="M2822 1714h-38v2h38l1-1-1-1" fill="#afcdfb"/><path d="M2819 1767h-29l-6-45h38l-3 45" fill="#9fc1f4"/><path d="M2822 1720h-38v2h39v-1l-1-1" fill="#afcdfb"/><path d="M2945 1625c-6 0-11 6-11 12v97c0 6 5 11 11 11 7 0 12-5 12-11v-97c0-6-5-12-12-12M2872 1625c-6 0-11 6-11 12v97c0 6 5 11 11 11s12-5 12-11v-97c0-6-6-12-12-12M2498 1625c-6 0-11 6-11 12v97c0 6 5 11 11 11s11-5 11-11v-97c0-6-5-12-11-12M2425 1625c-6 0-11 6-11 12v97a11 11 0 0022 0v-97c0-6-5-12-11-12" fill="#6488d3"/><path d="M2978 1552h-472c-4 0-7 4-7 8v78c0 4 3 7 7 7h472c4 0 7-3 7-7v-78c0-4-3-8-7-8" fill="#6488d3"/><path d="M2845 1552h-472c-4 0-7 4-7 8v78c0 4 3 7 7 7h472c4 0 8-3 8-7v-78c0-4-4-8-8-8M2834 1738h-449c-10 0-19 8-19 19v579c0 11 9 19 19 19h449c10 0 19-8 19-19v-579c0-11-9-19-19-19" fill="#9fc1f4"/><path d="M3675 2421H325c-2 0-4-2-4-4v-2c0-2 2-4 4-4h3350c2 0 4 2 4 4v2c0 2-2 4-4 4" fill="#2e3552"/><path d="M2876 1515l2 3-7 6 2 3 7-5 2 2 99-74a6 6 0 00-7-8l-98 73" fill="#ee9849"/><path d="M2935 1491h-5l-7-13a2 2 0 114-2l8 15" fill="#b64c41"/><path d="M2103 1464v77c0 18 15 33 34 33h54l-50 9c-28 5-53-20-49-48l11-71M2114 1459s67 1 77-6c0 0-14 17-77 6M2017 1106l75-64-8-18h15l47-62-47 68-9-2 7 16-80 62M2003 1104l6-52 10-4-8 5-8 51" fill="#c5ddf9"/></svg>