<svg xmlns="http://www.w3.org/2000/svg" viewBox="0 0 1024 683"><path d="M478 619l-5-52 15-14 33 14a22 22 0 0030-12l2-5c5-12 0-25-11-30l-16-7 167-171-10-10-171 175-46-20v-5l16 1 8-10-26-6-12-140 6 8 2 3-2 1 1 1 1-1 9 12h4l-11-14h1v-1l-2 1-2-3v1l-7-8-2-26 7-6h1v-1h1v-1l1-1c7-9 8-22 4-37 24-24 57-48 111-60 24-5 47-7 68-7 97 0 173 48 163 123-19 139 217 68 96 308H478m-6-70l-1-4 3 1-2 3m-349-88c6-31 20-62 46-91 34-37 67-54 96-61l-40 43a48 48 0 00-7 1 24 24 0 00-8 3c-8 4-12 12-12 21l1 4-76 80" fill="#d8f0f9"/><path d="M427 615l266-273-10-10-266 273 10 10" fill="#afcdfb"/><path d="M446 618H328c-13 0-25-6-31-15-7-8-7-18 0-27l36-47 25-1-42 57c-3 3-3 6 0 10 2 3 7 5 12 5h97c12 0 21 8 21 18" fill="#6488d3"/><path d="M412 580h-73c-2 0-4 1-4 4v12c0 2 2 4 4 4h73c3 0 5-2 5-4v-12c0-3-2-4-5-4" fill="#7ea6ed"/><path d="M354 494l-96-120-8-11c-8-8-20-12-31-10-14 2-23 14-20 28l93 125a27 27 0 0031 21l10-2c14-3 24-17 21-31" fill="#afcdfb"/><path d="M490 473l-8 10s-48-1-64-7l-21-1c-15 0-34 0-41-3l-7-4c-10-11-4-24-4-24s19-2 38 0c13 1 33 4 41 9 13 8 66 20 66 20" fill="#ffb07b"/><path d="M501 456l-2 1c-1 2-3 6-7 8l-9 8 1 5c1 3-3 4-3 4l1 2 2 1 6 3 1 2 3-3 1-5 1-4c0-2 2-3 2-3l6-18-3-1" fill="#415da5"/><path d="M292 357a127 127 0 0010 20l-20 12s0-11-4-18v-1l-3-3 2-2 7-4 8-4" fill="#ffb07b"/><path d="M292 357l6 12c-7 4-16 3-20 2v-1l3-4 3-5 8-4" fill="#ea8e50"/><path d="M300 362s-17 17-28 6c-11-10-20-16-9-27 10-12 16-10 21-7 4 3 20 23 16 28" fill="#ffb07b"/><path d="M383 445c0 1 0 10-6 15-4 2-13 9-22 12l-7-5c-9-11-3-23-3-23s19-1 38 1" fill="#aa3e39"/><path d="M319 439s22 6 38-1c0 0 13 4 29 6 0 0-6 26-9 30l-34 2c-8 0-15-4-20-9l-7-9c-8-12 3-19 3-19" fill="#b84c42"/><path d="M348 422l-6-9-6-7c-9-12-20-21-33-28l-2-2-20 4s-2 16 0 23c2 5 12 28 33 52 0 0 18 7 33-7 2-2 10-6 11-11 1-1-9-14-10-15" fill="#739cf3"/><path d="M255 381l-20-23c-3-4-2-9 2-12s9-2 11 1l19 24a8 8 0 01-12 10" fill="#b84c42"/><path d="M248 348h2l-1-7c0 2 3 5 3 5-1-9 20-18 22-18 2-1 1-5 1-5 5 1 10 6 10 11 1 5-1 20-4 18-5-3-5 5 0 7 3 1 1 8-2 12-3 2-5 1-6 0h-2c-6-1-14-7-18-14-2-3-2-7-2-8l-3-1" fill="#2c3a64"/><path d="M294 393s-9 15-1 34c0 0 11 17 21 28 0 0 17 9 37-9l-21-9-36-44" fill="#6488d3"/><path d="M381 443c0-1-3-4-11-4-9-1-34-3-37-7-1-2-22-44-24-44-6-1-17 10-15 15 0 0 22 44 26 45 8 1 36 0 46-2l7 4c2 1 7 1 9-1 2-1 1-5-1-6" fill="#ffb07b"/><path d="M321 407c-4 7-11 12-20 14-2-2-7-18-7-18-2-5-2-24 14-17 11 4 12 17 13 21" fill="#739cf3"/><path d="M521 567l-92-40 21-47 92 40c11 5 16 18 11 30l-2 5c-5 12-18 17-30 12" fill="#9fc1f4"/><path d="M464 520v-34l-14-6-21 47 19 8c9 0 16-7 16-15" fill="#7ea6ed"/><path d="M438 475H330l-88-105c-7-9-11-13-16-16a11 11 0 00-9-1c-17 4-24 25-13 39l88 114c1 5 3 9 6 12l1 1 1 1 1 2 1 1 1 1 1 1h1v1h1a19 19 0 002 1 13 13 0 002 0v1h1a14 14 0 002 0 23 23 0 002 0h123a18 18 0 0013-5c4-4 6-8 6-13v-17c0-10-9-18-19-18" fill="#9fc1f4"/><path d="M456 504H293c-1 0-7 0-7-2l2-2h168l2 2-2 2" fill="#6488d3"/><path d="M463 336l-2 1-2-3v1l-9-12v1l8 11 2 3-2 1 1 1 1-1 9 12h4l-11-14h1v-1m221 17L485 153l10-10 200 200-11 10" fill="#afcdfb"/><path d="M497 162l-52 52-11-10 53-52 10 10" fill="#afcdfb"/><path d="M444 204c17 16 21 38 11 48s-31 5-47-11-21-38-11-48 31-5 47 11" fill="#6488d3"/><path d="M438 211c28 29 37 66 19 84s-55 9-84-19c-29-29-37-66-20-84 18-18 56-9 85 19" fill="#9fc1f4"/><path d="M461 246c5 17 4 33-6 43-18 18-56 9-84-20a96 96 0 01-24-34c4 14 13 28 26 41 29 28 66 37 84 19 11-11 12-30 4-49" fill="#739cf3"/><path d="M425 223c23 23 29 52 15 66-13 14-43 7-65-15s-29-52-15-66 43-7 65 15" fill="#c5ddf9"/><path d="M403 244c6 6 8 13 4 17-3 4-11 2-17-4s-8-14-4-18c3-3 11-1 17 5m17-19c6 6 8 14 4 18s-11 2-17-4-8-14-5-18c4-4 12-2 18 4m-43-8c6 6 8 14 4 18s-12 2-18-4-7-14-4-18c4-4 12-2 18 4m52 52c6 6 7 14 4 18-4 3-12 1-18-5s-8-13-4-17 12-2 18 4m-42-9c4 5 6 11 3 14s-9 1-14-3c-4-5-6-11-3-14s9-1 14 3" fill="#fff"/><path d="M478 620l-380-1c-48-83-11-119-11-119l36-39c-15 82 25 158 25 158h330v1m-88-300c-11 0-25-4-40-7-16-4-33-7-53-7l-32 3 80-85a95 95 0 0027 51h1v1a116 116 0 003 3c14 13 30 22 45 25-9 9-17 15-28 15l-3 1" fill="#fff"/><path d="M148 619s-40-76-25-158l76-80c0 4 2 8 5 11l84 108-2 2 5 2 1 2a26 26 0 007 13l1 1 1 2 1 1 1 1 1 1h1v1h1a19 19 0 002 1 13 13 0 002 0v1h1a14 14 0 002 0 23 23 0 002 0h43l-25 1-36 47c-7 9-7 19 0 27 6 9 18 15 31 15h118c0-6-3-11-8-14l35-37 5 52H148m273-19h-9c3 0 5-2 5-4v-12c0-3-2-4-5-4h-73c-2 0-4 1-4 4v12c0 2 2 4 4 4h-11c-5 0-10-2-12-5-3-4-3-7 0-10l42-57h74l4 2 35 15 1 4-51 51m45-113l-13-5h13v5m-57-12h-7 7m-30 0h-7 7m85-8c-15-4-33-10-40-14s-25-8-38-9a178 178 0 01-5-1c0-1-3-4-11-4a459 459 0 01-12-2c1-1-9-14-10-15l-6-9-6-7c-9-12-20-21-33-28l-2-1a59 59 0 00-5-12l4-3c4-4-9-21-15-26v-2c0-5-5-10-10-11 0 0 1 4-1 5-2 0-23 9-22 18 0 0-3-3-3-5l1 7a4 4 0 00-1 0l-1-1a8 8 0 00-11-1c-3 2-4 5-4 7l-8-1 40-43 32-3c20 0 37 3 53 7 15 3 29 7 40 7l3-1c11 0 19-6 28-15a61 61 0 0011 1c7 0 13-2 18-4l2 26-2-4v1l2 3 12 140m-183-65l-16-19a8 8 0 002-12l-2-2 6 2h2l3 1h3l2 8s-2 14 0 22m-30-51l-2-3 2 1v2" fill="#e0f3fa"/><path d="M438 604c-4-3-8-4-13-4h-4l51-51 1 18-35 37" fill="#bfd7fc"/><path d="M446 618H328c-13 0-25-6-31-15-7-8-7-18 0-27l36-47 25-1-42 57c-3 3-3 6 0 10 2 3 7 5 12 5h97c5 0 9 1 13 4 5 3 8 8 8 14" fill="#83a0dc"/><path d="M412 600h-73c-2 0-4-2-4-4v-12c0-3 2-4 4-4h73c3 0 5 1 5 4v12c0 2-2 4-5 4" fill="#98b8f1"/><path d="M336 475h-6l-88-105a57 57 0 00-18-17l1-1 8 1 2 5 20 23a8 8 0 0010 2l16 19v1a195 195 0 0035 55l7 9c3 4 8 7 13 8" fill="#bfd7fc"/><path d="M466 482h-13l-1-1c-3-4-8-6-14-6h-59a255 255 0 01-2-1c3-4 9-29 9-30 13 1 31 5 38 9s25 10 40 14l2 15M281 380l-2-8a12 12 0 004 0h3l12-3-2-4a106 106 0 015 12v-1l-20 4" fill="#ffc095"/><path d="M286 372h-3c5-1 10-4 13-7l2 4-12 3" fill="#eea573"/><path d="M280 372a12 12 0 01-2 0l1-1c3-4 5-11 2-12-4-2-5-8-2-8l2 1h1c2 0 3-11 3-16 6 5 19 22 15 26l-4 3c-3 3-8 6-13 7h-3" fill="#ffc095"/><path d="M372 475h-36c-5-1-10-4-13-8a88 88 0 01-8-11l9 1c6 0 15-2 24-9l18-2a217 217 0 0010 4l6-1c2-1 1-4 0-6l4 1c0 1-6 26-9 30l-3 1h-2" fill="#c67068"/><path d="M312 453a195 195 0 01-31-51c-2-8 0-22 0-22l20-4v1l2 1c13 7 24 16 33 28l6 7 6 9a68 68 0 0110 16c-11-2-23-3-25-6l-13-24 1-1c-1-4-2-17-13-21l-6-2c-6 0-8 5-9 10-1 3-7 16 0 33l19 26" fill="#8fb0f5"/><path d="M261 384c-3 0-5-1-6-3l-20-23a8 8 0 012-12 8 8 0 0111 1l1 1h-1 1l2 3 2 6c3 5 8 9 12 12l2 2a8 8 0 01-6 13" fill="#c67068"/><path d="M276 372l-3-1h-2l-6-2c-4-3-9-7-12-12a21 21 0 01-2-8 17 17 0 00-3-1h1a4 4 0 011 0l-1-7c0 2 3 5 3 5-1-9 20-18 22-18 2-1 1-5 1-5 5 1 10 6 10 11v2c0 5-1 16-3 16h-1l-2-1c-3 0-2 6 2 8 3 1 1 8-2 12l-1 1h-2" fill="#566183"/><path d="M324 457a28 28 0 01-10-2l-2-2-19-26c-7-17-1-30 0-33l1 9s5 16 7 18h2c6 12 15 27 17 27l12 1 16-1c-9 7-18 9-24 9" fill="#83a0dc"/><path d="M376 450h-3l-7-4a140 140 0 01-34 3l-12-1c-2 0-11-15-17-27 8-3 14-7 17-13l13 24c2 3 14 4 25 6l12 1c8 0 11 3 11 4h1c1 2 2 5 0 6l-6 1" fill="#ffc095"/><path d="M301 421c-2-2-7-18-7-18l-1-9c1-5 3-10 9-10l6 2c11 4 12 17 13 21l-1 1a28 28 0 01-19 13" fill="#8fb0f5"/><path d="M471 545l-35-15 12 5c9 0 16-7 16-15v-34l-12-5 1 1 13 5 5 58" fill="#b2cdf6"/><path d="M448 535l-12-5-4-2h6a18 18 0 0013-5c4-4 6-8 6-13v-6l1-2-1-2v-7c0-4-2-9-5-12l12 5v34c0 8-7 15-16 15" fill="#98b8f1"/><path d="M438 528H315a17 17 0 01-2 0 21 21 0 01-2 0h-1v-1h-2a28 28 0 01-2-1h-1v-1h-1l-1-1-1-1-1-1-1-2-1-1a15 15 0 01-1-1 26 26 0 01-6-12l-1-2h166v6a18 18 0 01-19 18m-150-28l-84-108c-3-3-5-7-5-11l25-28 2 1c5 3 9 7 16 16l88 105h108c6 0 11 2 14 6 3 3 5 8 5 12v7H288" fill="#b2cdf6"/><path d="M292 504h-1l-5-2a2 2 0 012-2h169l1 2a2 2 0 01-2 2H292" fill="#83a0dc"/><path d="M452 327l-2-3v-1l2 4" fill="#bfd7fc"/><path d="M426 304h-5a96 96 0 015 0m4-6l-16-2h7c8 0 15-2 19-7 5-4 7-9 8-16l1 20c-5 3-12 5-19 5m-58-23a95 95 0 01-27-51l14-15c-12 14-7 39 11 60-10-11-18-23-23-34 4 13 13 27 25 40" fill="#b2cdf6"/><path d="M432 305l-6-1c-16-2-34-10-50-25a116 116 0 01-3-3v-1h-1c-12-13-21-27-25-40 5 11 13 23 23 34l5 5c12 12 27 20 39 22l16 2c7 0 14-2 19-5l1 8c-5 2-11 4-18 4" fill="#8fb0f5"/><path d="M448 273c0-8-2-19-7-29 9 18 7 29 7 29m-26-53a68 68 0 00-41-19c11 0 26 4 41 19m-62-12l3-2-3 2" fill="#b2cdf6"/><path d="M421 296h-7a75 75 0 01-44-27c-18-21-23-46-11-60l1-1 3-2c3-2 9-5 16-5a68 68 0 0143 19c9 9 15 17 19 24 5 10 7 21 7 29-1 7-3 12-8 16-4 5-11 7-19 7m-5-33c-2 0-4 0-5 2-4 4-2 11 4 17 4 4 9 6 12 6l6-1c3-4 2-12-4-18-4-4-9-6-13-6m-39-7l-4 1c-3 3-1 9 3 14 3 3 7 4 10 4l4-1c3-3 1-9-3-14-3-3-7-4-10-4m14-18l-5 1c-4 4-2 12 4 18 4 4 8 6 12 6 2 0 4 0 5-2 4-4 2-11-4-17-4-4-8-6-12-6m17-19l-6 2c-3 4-1 12 5 18 3 4 8 6 12 6l5-2c4-4 2-12-4-18-4-4-9-6-12-6m-43-8l-6 2c-3 4-2 12 4 18 4 4 9 6 13 6l5-2c4-4 2-12-4-18-4-4-9-6-12-6" fill="#d1e4fa"/><path d="M402 263c-4 0-8-2-12-6-6-6-8-14-4-18l5-1c4 0 8 2 12 6 6 6 8 13 4 17-1 2-3 2-5 2m17-18c-4 0-9-2-12-6-6-6-8-14-5-18l6-2c3 0 8 2 12 6 6 6 8 14 4 18l-5 2m-43-8c-4 0-9-2-13-6-6-6-7-14-4-18l6-2c3 0 8 2 12 6 6 6 8 14 4 18l-5 2m51 51c-3 0-8-2-12-6-6-6-8-13-4-17 1-2 3-2 5-2 4 0 9 2 13 6 6 6 7 14 4 18l-6 1m-41-13c-3 0-7-1-10-4-4-5-6-11-3-14l4-1c3 0 7 1 10 4 4 5 6 11 3 14l-4 1" fill="#fff"/><path d="M511 155a18 18 0 11-35 0 18 18 0 0135 0" fill="#6488d3"/><path d="M501 155a7 7 0 11-15 0 7 7 0 0115 0" fill="#afcdfb"/><path d="M700 341a18 18 0 11-35 0 18 18 0 0135 0" fill="#6488d3"/><path d="M690 341a7 7 0 11-15 0 7 7 0 0115 0" fill="#afcdfb"/><path d="M543 244s16 1 19 17c4 17-24 67-27 71-3 3-34 25-53 23 0 0-8 0-7-4l44-32c3-4 13-54 15-60 2-7 9-15 9-15" fill="#c5ddf9"/><path d="M549 246l-11 27-22-1 11-23a85 85 0 000-17l-1-1v-1h1l19-6h1a228 228 0 002 22" fill="#ffb07b"/><path d="M514 206s-7-32 37-32c10-1 17 27-2 45l-35-13" fill="#2b478b"/><path d="M574 391c-3 20-22 71-22 88a722 722 0 01-3 83l-5 22c-3 13-1 21-3 28-3 7-29 6-21 1 3-1 7-5 9-9 7-17-3-87-6-114l-1-8-12-128c28-16 66 17 64 37" fill="#ffb07b"/><path d="M574 391c-3 20-22 71-22 88 1 14 0 47-1 68l-28-57-1-8-12-128c28-16 66 17 64 37" fill="#ea8e50"/><path d="M513 357l27 127c2 17 24 95 19 114-2 12-7 15-7 15-1 2 18 6 19-2l5-49c5-42-5-66-7-83-2-18 8-74 2-93-10-33-32-47-58-29" fill="#ffb07b"/><path d="M581 506l-16 2-5-20-2 20c-14 1-34 0-48-6l-3-145s33 3 58-7c0 0 26 72 16 156" fill="#fff"/><path d="M580 596l-1 22h-2v-16h-1c-2 2-4 13-6 16h-22v-3l4-3s7 2 14 0c3-1 8-28 8-28l8 7c0 1 0 3-2 5" fill="#415da5"/><path d="M549 597a172 172 0 00-1 21h-2v-16l-6 16h-22c-2-3 3-6 3-6s8 2 15 0c3-1 8-28 8-28l8 7-3 6" fill="#415da5"/><path d="M545 228c-3 3-8 10-18 12v-8l-1-1v-1h1l18-2" fill="#ea8e50"/><path d="M526 236s25-2 23-17c-2-16 0-27-16-26s-18 7-19 13c0 5 5 31 12 30" fill="#ffb07b"/><path d="M521 197s-10 4-7 15c0 0-9-16 6-20 15-5 1 5 1 5" fill="#2b478b"/><path d="M521 193s-4 10 11 14c14 4 17 14 15 19 0 0 18-25 3-35-16-11-29 2-29 2" fill="#2b478b"/><path d="M569 365s-20 9-35 9c-15-1-17-6-17-6-3 2-10 0-10 0v-24l-1-6a374 374 0 011-18c0-5-5-28-1-40 2-5 19-28 21-29l-8 18c7-1 30-25 30-25l15 18 3 4-4 58c-1 10 6 41 6 41" fill="#fff"/><path d="M558 324c4-8 9-58 9-58l-3-4c-10 23-29 68-35 71l-22 11v15s40-13 51-35" fill="#c5ddf9"/><path d="M553 262l-11 50-34 24 45-74" fill="#c5ddf9"/><path d="M483 350s-16 1-17 3c-1 1 5 8 11 8 7 0 13-5 13-5l-7-6" fill="#ffb07b"/><path d="M549 244s14 5 18 22c3 17-25 67-28 70s-33 26-53 23c0 0-7-5-6-10 0 0 40-22 43-26 4-4 14-54 16-60s10-19 10-19" fill="#fff"/><path d="M508 384s3 77 17 90c13 12 27 5 33 34 0 0-35 5-48-6 0 0-5-70-2-118" fill="#c5ddf9"/><path d="M516 220l4-3 21-1s0 9 5 12c0 0-8 9-22 9 0 0-6-4-8-17" fill="#fff"/><path d="M546 228s-15 7-18 3c-4-3-7-12-7-12s3 14 6 17c4 2 14-3 19-8" fill="#c5ddf9"/><path d="M752 382h-3v16h3v-16" fill="#b64c41"/><path d="M759 528h-1v-1c4 0 7-1 10-4 8-8 6-32 4-55-2-21-5-42 2-53 9-15 8-30-3-46h-1l-2-1c-2-1-6 3-6 3v-1s3-4 6-3l3 1v1c2 2 7 8 9 16 2 11 0 21-6 31-5 10-3 31-1 52 2 23 4 47-5 56-2 3-5 4-9 4" fill="#9fc1f4"/><path d="M759 445H645c-3 0-5 2-5 5v148c0 3 2 5 5 5h114c3 0 5-2 5-5V450c0-3-2-5-5-5" fill="#6488d3"/><path d="M622 610a9 9 0 1118 0 9 9 0 01-18 0" fill="#9fc1f4"/><path d="M625 610a6 6 0 1112 0 6 6 0 01-12 0" fill="#88ade5"/><path d="M735 610a9 9 0 1117 0 9 9 0 01-17 0" fill="#9fc1f4"/><path d="M737 610a6 6 0 1113 0 6 6 0 01-13 0" fill="#88ade5"/><path d="M669 433h-10a1 1 0 000-2h-8a1 1 0 000 2h1c-3 0-5 2-5 5v25c0 2 2 5 5 5h17c2 0 5-3 5-5v-25c0-3-3-5-5-5m23-6h-6v-2h-5l-1 1v1h2c-3 0-5 2-5 5v32c0 2 2 4 5 4h10c2 0 4-2 4-4v-32c0-3-2-5-4-5m17 19h-7l-1-12h9l-1 12" fill="#9fc1f4"/><path d="M710 433h-9l-1 1h10v-1" fill="#afcdfb"/><path d="M709 447h-7l-1-11h9l-1 11" fill="#9fc1f4"/><path d="M710 435h-10l1 1h9v-1" fill="#afcdfb"/><path d="M709 449h-7l-1-12h9l-1 12" fill="#9fc1f4"/><path d="M710 437h-10 10" fill="#afcdfb"/><path d="M709 451h-7l-1-11h9l-1 11" fill="#9fc1f4"/><path d="M710 439h-10l1 1h9v-1" fill="#afcdfb"/><path d="M709 453h-7l-1-12h9l-1 12" fill="#9fc1f4"/><path d="M710 441h-10 10" fill="#afcdfb"/><path d="M623 390h-1l-1-1h-1l-1 1c-2 0-3 1-3 2v20c0 2 1 3 3 3h4c1 0 2-1 2-3v-20l-2-2m10 0l-2-1-1 1h-1l-2 2v20c0 2 1 3 2 3h4c1 0 2-1 2-3v-20l-2-2m11 0l-1-1h-1l-1 1h-1l-2 2v20c0 2 1 3 2 3h4c2 0 3-1 3-3v-20c0-1-1-2-3-2" fill="#b64c41"/><path d="M668 377h-7l1-1-1-1h-4l-1 1 1 1c-2 0-4 2-4 4v33c0 2 2 4 4 4h11c2 0 4-2 4-4v-33c0-2-2-4-4-4" fill="#ee9849"/><path d="M709 395h-7l-1-12h9l-1 12" fill="#9fc1f4"/><path d="M710 383h-10 10" fill="#afcdfb"/><path d="M709 397h-7l-1-12h9l-1 12" fill="#9fc1f4"/><path d="M710 385h-10 10" fill="#afcdfb"/><path d="M709 398h-7l-1-11h9l-1 11" fill="#9fc1f4"/><path d="M710 386h-10v1h10v-1" fill="#afcdfb"/><path d="M709 401h-7l-1-12h9l-1 12" fill="#9fc1f4"/><path d="M710 389h-10 10" fill="#afcdfb"/><path d="M709 402h-7l-1-11h9l-1 11" fill="#9fc1f4"/><path d="M710 390h-10v1h10v-1" fill="#afcdfb"/><path d="M696 395h-8l-1-12h10l-1 12" fill="#9fc1f4"/><path d="M697 383h-10 10" fill="#afcdfb"/><path d="M696 397h-8l-1-12h10l-1 12" fill="#9fc1f4"/><path d="M697 385h-10 10" fill="#afcdfb"/><path d="M696 398h-8l-1-11h10l-1 11" fill="#9fc1f4"/><path d="M697 386h-10v1h10v-1" fill="#afcdfb"/><path d="M696 401h-8l-1-12h10l-1 12" fill="#9fc1f4"/><path d="M697 389h-10 10" fill="#afcdfb"/><path d="M687 391l1 11h8l1-11h-10" fill="#9fc1f4"/><path d="M697 390h-10v1h10v-1" fill="#afcdfb"/><path d="M723 395h-7l-1-12h9l-1 12" fill="#9fc1f4"/><path d="M724 383h-9 9" fill="#afcdfb"/><path d="M723 397h-7l-1-12h9l-1 12" fill="#9fc1f4"/><path d="M724 385h-9 9" fill="#afcdfb"/><path d="M723 398h-7l-1-11h9l-1 11" fill="#9fc1f4"/><path d="M724 386h-9v1h10v-1h-1" fill="#afcdfb"/><path d="M723 401h-7l-1-12h9l-1 12" fill="#9fc1f4"/><path d="M724 389h-9 9" fill="#afcdfb"/><path d="M723 402h-7l-1-11h9l-1 11" fill="#9fc1f4"/><path d="M724 390h-9v1h10v-1h-1" fill="#afcdfb"/><path d="M722 446h-8l-1-12h9v12" fill="#9fc1f4"/><path d="M722 433h-9v1h10l-1-1" fill="#afcdfb"/><path d="M722 447h-8l-1-11h9v11" fill="#9fc1f4"/><path d="M722 435h-9v1h9l1-1h-1" fill="#afcdfb"/><path d="M722 449h-8l-1-12h9v12" fill="#9fc1f4"/><path d="M722 437h-9 9" fill="#afcdfb"/><path d="M722 451h-8l-1-11h9v11" fill="#9fc1f4"/><path d="M722 439h-9v1h9l1-1h-1" fill="#afcdfb"/><path d="M722 453h-8l-1-12h9v12" fill="#9fc1f4"/><path d="M722 441h-9 9" fill="#afcdfb"/><path d="M754 416c-2 0-3 2-3 3v25c0 2 1 3 3 3s3-1 3-3v-25c0-1-1-3-3-3m-19 0l-3 3v25c0 2 2 3 3 3 2 0 3-1 3-3v-25c0-1-1-3-3-3m-95 0c-2 0-3 2-3 3v25c0 2 1 3 3 3 1 0 2-1 2-3v-25l-2-3m-19 0c-2 0-3 2-3 3v25c0 2 1 3 3 3 1 0 3-1 3-3v-25l-3-3" fill="#6488d3"/><path d="M762 398H642c-1 0-2 0-2 2v20l2 1h120l2-1v-20c0-2-1-2-2-2" fill="#6488d3"/><path d="M728 398H608c-1 0-2 0-2 2v20l2 1h120l2-1v-20c0-2-1-2-2-2m-3 47H611c-3 0-5 2-5 5v148c0 3 2 5 5 5h114c3 0 5-2 5-5V450c0-3-2-5-5-5" fill="#9fc1f4"/><path d="M941 620H83l-1-1 1-1h858l1 1-1 1" fill="#2e3552"/><path d="M736 388l1 1-2 1 1 1 1-1h1l25-19a1 1 0 00-2-2l-25 19" fill="#ee9849"/><path d="M751 382h-1l-2-3a1 1 0 111-1l2 4" fill="#b64c41"/><path d="M538 375v20c0 4 4 8 9 8h14l-13 2c-7 2-13-5-12-12l2-18m3-1s17 0 20-2c0 0-4 5-20 2m-25-91l20-16-2-5h3l12-16-12 18-2-1 2 4-21 16m-3 0l1-14 3-1-2 2-2 13" fill="#c5ddf9"/></svg>
